# xmcd
#
# Track frame offsets:
#	150
#	18323
#	33959
#	50817
#	68530
#	84880
#	104582
#	122082
#	136232
#	153132
#	180572
#	194937
#	207882
#	231356
#	245418
#	267014
#
# Disc length: 3830 seconds
#
# Revision: 1
# Processed by: cddbd v1.5.1PL2 Copyright (c) Steve Scherf et al.
# Submitted via: audiograbber 1.83.01
#
DISCID=d80ef410
DTITLE=Townes Van Zandt - A Private Concert
DYEAR=2005
DGENRE=Blues
TTITLE0=Pancho and Lefty
TTITLE1=Buckskin Stallion Blues
TTITLE2=No Place To Fall
TTITLE3=Snowin' On Raton
TTITLE4=Catfish Song
TTITLE5=White Freightliner Blues
TTITLE6=You Are Not Needed Now
TTITLE7=Rake
TTITLE8=Mr. Mudd and Mr. Gold
TTITLE9=If I Needed You
TTITLE10=Nothin'
TTITLE11=No Lonesome Tune
TTITLE12=Tecumseh Valley
TTITLE13=I'll Be Here In The Morning
TTITLE14=Brand New Companion
TTITLE15=The Hole
EXTD=
EXTT0=
EXTT1=
EXTT2=
EXTT3=
EXTT4=
EXTT5=
EXTT6=
EXTT7=
EXTT8=
EXTT9=
EXTT10=
EXTT11=
EXTT12=
EXTT13=
EXTT14=
EXTT15=
PLAYORDER=
